<mxfile host="app.diagrams.net" agent="Mozilla/5.0 (X11; Ubuntu; Linux x86_64; rv:136.0) Gecko/20100101 Firefox/136.0" version="26.2.3">
  <diagram name="Page-1" id="dPe-yoAAF0uT67GYots7">
    <mxGraphModel dx="1307" dy="795" grid="1" gridSize="10" guides="1" tooltips="1" connect="1" arrows="1" fold="1" page="1" pageScale="1" pageWidth="850" pageHeight="1100" math="0" shadow="1">
      <root>
        <mxCell id="0" />
        <mxCell id="1" parent="0" />
        <mxCell id="rVGYfOko8amNhe19nSk2-1" value="&lt;span class=&quot;OYPEnA font-feature-liga-off font-feature-clig-off font-feature-calt-off text-decoration-none text-strikethrough-none&quot; style=&quot;color: rgb(0, 0, 0); font-style: normal; font-kerning: normal;&quot;&gt;Translate the sentence based on the following examples.&lt;/span&gt;" style="rounded=1;whiteSpace=wrap;html=1;shadow=1;fontStyle=1;fillColor=#D6EBFF;strokeColor=#9673a6;" parent="1" vertex="1">
          <mxGeometry x="110" y="468" width="220" height="82" as="geometry" />
        </mxCell>
        <mxCell id="rVGYfOko8amNhe19nSk2-5" value="" style="edgeStyle=orthogonalEdgeStyle;rounded=0;orthogonalLoop=1;jettySize=auto;html=1;shadow=0;fontStyle=1;fillColor=#e1d5e7;strokeColor=#9673a6;" parent="1" source="rVGYfOko8amNhe19nSk2-2" target="rVGYfOko8amNhe19nSk2-3" edge="1">
          <mxGeometry relative="1" as="geometry" />
        </mxCell>
        <mxCell id="rVGYfOko8amNhe19nSk2-2" value="&lt;span class=&quot;OYPEnA font-feature-liga-off font-feature-clig-off font-feature-calt-off text-decoration-none text-strikethrough-none&quot; style=&quot;color: rgb(0, 0, 0); font-style: normal; font-kerning: normal;&quot;&gt;They are listed on the UNESCO World Heritage List.&lt;/span&gt;" style="rounded=1;whiteSpace=wrap;html=1;shadow=1;fontStyle=1;fillColor=#D6EBFF;strokeColor=#9673a6;" parent="1" vertex="1">
          <mxGeometry x="646" y="468" width="190" height="82" as="geometry" />
        </mxCell>
        <mxCell id="00uqzowmlft3CjKkbiBN-6" value="" style="edgeStyle=orthogonalEdgeStyle;rounded=0;orthogonalLoop=1;jettySize=auto;html=1;" edge="1" parent="1" source="rVGYfOko8amNhe19nSk2-3" target="rVGYfOko8amNhe19nSk2-9">
          <mxGeometry relative="1" as="geometry" />
        </mxCell>
        <mxCell id="rVGYfOko8amNhe19nSk2-3" value="&lt;span class=&quot;OYPEnA font-feature-liga-off font-feature-clig-off font-feature-calt-off text-decoration-none text-strikethrough-none&quot; style=&quot;color: rgb(0, 0, 0); font-style: normal; font-kerning: normal;&quot;&gt;Translate the sentence based on the following examples.&lt;/span&gt;&lt;br&gt;&lt;div&gt;English: The whole district is ...&lt;/div&gt;&lt;div&gt;French: Tout le quartier est ...&lt;/div&gt;&lt;div&gt;English: &lt;span class=&quot;OYPEnA font-feature-liga-off font-feature-clig-off font-feature-calt-off text-decoration-none text-strikethrough-none&quot; style=&quot;color: rgb(0, 0, 0); font-style: normal; font-kerning: normal;&quot;&gt;They are listed on the UNESCO World Heritage List.&lt;/span&gt;&lt;/div&gt;" style="ellipse;whiteSpace=wrap;html=1;shadow=1;fontStyle=1;gradientColor=none;dashed=1;dashPattern=1 2;" parent="1" vertex="1">
          <mxGeometry x="248" y="210" width="430" height="200" as="geometry" />
        </mxCell>
        <mxCell id="rVGYfOko8amNhe19nSk2-6" value="Prompt" style="text;html=1;align=center;verticalAlign=middle;resizable=0;points=[];autosize=1;shadow=1;fontStyle=0;" parent="1" vertex="1">
          <mxGeometry x="179" y="560" width="60" height="30" as="geometry" />
        </mxCell>
        <mxCell id="rVGYfOko8amNhe19nSk2-7" value="&lt;div&gt;Source Text&lt;/div&gt;" style="text;html=1;align=center;verticalAlign=middle;resizable=0;points=[];autosize=1;shadow=1;fontStyle=0;" parent="1" vertex="1">
          <mxGeometry x="694" y="560" width="90" height="30" as="geometry" />
        </mxCell>
        <mxCell id="rVGYfOko8amNhe19nSk2-8" value="Concatenate" style="text;html=1;align=center;verticalAlign=middle;resizable=0;points=[];autosize=1;shadow=1;fontStyle=0;" parent="1" vertex="1">
          <mxGeometry x="370" y="438" width="90" height="30" as="geometry" />
        </mxCell>
        <mxCell id="rVGYfOko8amNhe19nSk2-12" value="" style="edgeStyle=orthogonalEdgeStyle;rounded=0;orthogonalLoop=1;jettySize=auto;html=1;shadow=1;fontStyle=1;fillColor=#e1d5e7;strokeColor=#9673a6;" parent="1" source="rVGYfOko8amNhe19nSk2-9" target="rVGYfOko8amNhe19nSk2-11" edge="1">
          <mxGeometry relative="1" as="geometry" />
        </mxCell>
        <mxCell id="rVGYfOko8amNhe19nSk2-9" value="&lt;font style=&quot;font-size: 18px;&quot;&gt;Large Language Model&lt;/font&gt;" style="rounded=1;whiteSpace=wrap;html=1;shadow=1;fontStyle=1;fillColor=light-dark(#e2d6f3, #ededed);strokeColor=#666666;gradientColor=light-dark(#c6b2e3, #535353);" parent="1" vertex="1">
          <mxGeometry x="263" y="110" width="400" height="60" as="geometry" />
        </mxCell>
        <mxCell id="rVGYfOko8amNhe19nSk2-11" value="&lt;div class=&quot;line-clamp-2&quot;&gt;&lt;div class=&quot;&quot; dir=&quot;auto&quot;&gt;&lt;span class=&quot;&quot;&gt;Ils sont inscrits sur la liste du patrimoine mondial de lâ€™UNESCO.&lt;/span&gt;&lt;/div&gt;&lt;/div&gt;" style="whiteSpace=wrap;html=1;rounded=1;shadow=1;fontStyle=1;fillColor=#D4FFD4;strokeColor=#9673a6;" parent="1" vertex="1">
          <mxGeometry x="388" y="10" width="150" height="60" as="geometry" />
        </mxCell>
        <mxCell id="00uqzowmlft3CjKkbiBN-2" value="" style="image;aspect=fixed;perimeter=ellipsePerimeter;html=1;align=center;shadow=0;dashed=0;spacingTop=3;image=img/lib/active_directory/database_server.svg;" vertex="1" parent="1">
          <mxGeometry x="21" y="130" width="123" height="150" as="geometry" />
        </mxCell>
        <mxCell id="00uqzowmlft3CjKkbiBN-3" value="" style="endArrow=classic;html=1;rounded=0;exitX=0.522;exitY=0.967;exitDx=0;exitDy=0;exitPerimeter=0;entryX=0.179;entryY=1.007;entryDx=0;entryDy=0;entryPerimeter=0;" edge="1" parent="1">
          <mxGeometry width="50" height="50" relative="1" as="geometry">
            <mxPoint x="737.96" y="587.96" as="sourcePoint" />
            <mxPoint x="39.99700000000005" y="279.99999999999994" as="targetPoint" />
            <Array as="points">
              <mxPoint x="737.98" y="628.95" />
              <mxPoint x="40" y="629" />
            </Array>
          </mxGeometry>
        </mxCell>
        <mxCell id="00uqzowmlft3CjKkbiBN-4" value="&lt;div&gt;English: The whole district is designated as a UNESCO World Heritage Site.&lt;/div&gt;&lt;div&gt;French: Tout le quartier est inscrit au patrimoine mondial de l&#39;UNESCO&lt;/div&gt;" style="rounded=1;whiteSpace=wrap;html=1;shadow=1;fontStyle=1;fillColor=#D6EBFF;strokeColor=#9673a6;" vertex="1" parent="1">
          <mxGeometry x="340" y="468" width="290" height="82" as="geometry" />
        </mxCell>
        <mxCell id="00uqzowmlft3CjKkbiBN-7" value="" style="endArrow=classic;html=1;rounded=0;exitX=0.5;exitY=1;exitDx=0;exitDy=0;entryX=0.5;entryY=1;entryDx=0;entryDy=0;" edge="1" parent="1" source="00uqzowmlft3CjKkbiBN-2" target="00uqzowmlft3CjKkbiBN-4">
          <mxGeometry relative="1" as="geometry">
            <mxPoint x="380" y="420" as="sourcePoint" />
            <mxPoint x="480" y="420" as="targetPoint" />
            <Array as="points">
              <mxPoint x="83" y="600" />
              <mxPoint x="485" y="600" />
            </Array>
          </mxGeometry>
        </mxCell>
        <mxCell id="00uqzowmlft3CjKkbiBN-8" value="&lt;b&gt;&lt;span&gt;&lt;span class=&quot;JgzqYd&quot;&gt;Retrieved&lt;/span&gt;&lt;/span&gt; Example(s)&lt;/b&gt;" style="edgeLabel;resizable=0;html=1;;align=center;verticalAlign=middle;" connectable="0" vertex="1" parent="00uqzowmlft3CjKkbiBN-7">
          <mxGeometry relative="1" as="geometry">
            <mxPoint x="-49" y="-210" as="offset" />
          </mxGeometry>
        </mxCell>
        <mxCell id="00uqzowmlft3CjKkbiBN-9" value="" style="endArrow=classic;html=1;rounded=0;exitX=0.5;exitY=0;exitDx=0;exitDy=0;entryX=0.5;entryY=1;entryDx=0;entryDy=0;" edge="1" parent="1">
          <mxGeometry width="50" height="50" relative="1" as="geometry">
            <mxPoint x="220" y="467" as="sourcePoint" />
            <mxPoint x="463" y="409" as="targetPoint" />
            <Array as="points">
              <mxPoint x="220" y="439" />
              <mxPoint x="463" y="439" />
            </Array>
          </mxGeometry>
        </mxCell>
        <mxCell id="00uqzowmlft3CjKkbiBN-10" value="" style="endArrow=classic;html=1;rounded=0;entryX=0.5;entryY=1;entryDx=0;entryDy=0;" edge="1" parent="1" target="rVGYfOko8amNhe19nSk2-3">
          <mxGeometry width="50" height="50" relative="1" as="geometry">
            <mxPoint x="463" y="470" as="sourcePoint" />
            <mxPoint x="450" y="390" as="targetPoint" />
          </mxGeometry>
        </mxCell>
      </root>
    </mxGraphModel>
  </diagram>
</mxfile>
